<?xml version="1.0" encoding="utf-8"?>
<svg version="1.1" xmlns:xlink="http://www.w3.org/1999/xlink" width="35px" height="40px" xmlns="http://www.w3.org/2000/svg">
  <g transform="matrix(1 0 0 1 0 -10 )">
    <path d="M 17.5 10  C 27.3 10  35 18.799999999999997  35 30  C 35 41.2  27.3 50  17.5 50  C 7.699999999999999 50  0 41.2  0 30  C 0 18.799999999999997  7.699999999999999 10  17.5 10  Z " fill-rule="nonzero" fill="#09d40f" stroke="none" />
    <path d="M 17.5 10.5  C 27.02 10.5  34.5 19.08  34.5 30  C 34.5 40.92  27.02 49.5  17.5 49.5  C 7.979999999999999 49.5  0.5 40.92  0.5 30  C 0.5 19.08  7.979999999999999 10.5  17.5 10.5  Z " stroke-width="1" stroke="#040504" fill="none" />
  </g>
</svg>