<?xml version="1.0" encoding="utf-8"?>
<svg version="1.1" xmlns:xlink="http://www.w3.org/1999/xlink" width="35px" height="40px" xmlns="http://www.w3.org/2000/svg">
  <g transform="matrix(1 0 0 1 0 -127 )">
    <path d="M 17.5 127  C 27.3 127  35 135.8  35 147  C 35 158.2  27.3 167  17.5 167  C 7.699999999999999 167  0 158.2  0 147  C 0 135.8  7.699999999999999 127  17.5 127  Z " fill-rule="nonzero" fill="#09d40f" stroke="none" />
    <path d="M 17.5 127.5  C 27.02 127.5  34.5 136.07999999999998  34.5 147  C 34.5 157.92000000000002  27.02 166.5  17.5 166.5  C 7.979999999999999 166.5  0.5 157.92000000000002  0.5 147  C 0.5 136.07999999999998  7.979999999999999 127.5  17.5 127.5  Z " stroke-width="1" stroke="#797979" fill="none" />
  </g>
</svg>