<?xml version="1.0" encoding="utf-8"?>
<svg version="1.1" xmlns:xlink="http://www.w3.org/1999/xlink" width="35px" height="40px" xmlns="http://www.w3.org/2000/svg">
  <g transform="matrix(1 0 0 1 0 -239 )">
    <path d="M 17.5 239  C 27.3 239  35 247.8  35 259  C 35 270.2  27.3 279  17.5 279  C 7.699999999999999 279  0 270.2  0 259  C 0 247.8  7.699999999999999 239  17.5 239  Z " fill-rule="nonzero" fill="#f50606" stroke="none" />
    <path d="M 17.5 239.5  C 27.02 239.5  34.5 248.07999999999998  34.5 259  C 34.5 269.92  27.02 278.5  17.5 278.5  C 7.979999999999999 278.5  0.5 269.92  0.5 259  C 0.5 248.07999999999998  7.979999999999999 239.5  17.5 239.5  Z " stroke-width="1" stroke="#797979" fill="none" />
  </g>
</svg>