<?xml version="1.0" encoding="utf-8"?>
<svg version="1.1" xmlns:xlink="http://www.w3.org/1999/xlink" width="40px" height="31px" xmlns="http://www.w3.org/2000/svg">
  <g transform="matrix(1 0 0 1 -181 -652 )">
    <path d="M 24.53125 19.01171875  C 26.638621794871796 17.378505608974358  27.692307692307693 15.413060897435896  27.692307692307693 13.115384615384617  C 27.692307692307693 10.81770833333333  26.638621794871796 8.85226362179487  24.53125 7.219050480769231  C 22.423878205128208 5.585837339743588  19.887820512820515 4.769230769230769  16.923076923076923 4.769230769230769  C 13.958333333333336 4.769230769230769  11.422275641025642 5.585837339743588  9.314903846153847 7.219050480769231  C 7.207532051282052 8.85226362179487  6.153846153846154 10.81770833333333  6.153846153846154 13.115384615384617  C 6.153846153846154 15.413060897435896  7.207532051282052 17.378505608974358  9.314903846153847 19.01171875  C 11.422275641025642 20.644931891025635  13.958333333333336 21.46153846153846  16.923076923076923 21.46153846153846  C 19.887820512820515 21.46153846153846  22.423878205128208 20.644931891025635  24.53125 19.01171875  Z M 39.11057692307693 26.938701923076923  C 39.70352564102564 27.398237179487182  40 27.957131410256412  40 28.615384615384617  C 40 29.261217948717952  39.695512820512825 29.820112179487182  39.08653846153846 30.29206730769231  C 38.4775641025641 30.764022435897434  37.75641025641026 31  36.92307692307693 31  C 36.05769230769231 31  35.33653846153846 30.764022435897434  34.75961538461539 30.29206730769231  L 26.514423076923073 23.920673076923077  C 23.645833333333336 25.460737179487182  20.448717948717952 26.23076923076923  16.923076923076923 26.23076923076923  C 14.631410256410257 26.23076923076923  12.439903846153847 25.88611778846154  10.348557692307692 25.196814903846157  C 8.257211538461538 24.50751201923077  6.454326923076923 23.576021634615383  4.939903846153847 22.40234375  C 3.425480769230769 21.228665865384617  2.2235576923076925 19.83143028846154  1.3341346153846154 18.21063701923077  C 0.4447115384615385 16.58984375  0 14.89142628205128  0 13.115384615384617  C 0 11.339342948717945  0.4447115384615385 9.64092548076923  1.3341346153846154 8.020132211538462  C 2.2235576923076925 6.399338942307692  3.425480769230769 5.002103365384617  4.939903846153847 3.8284254807692304  C 6.454326923076923 2.6547475961538476  8.257211538461538 1.723257211538461  10.348557692307692 1.033954326923078  C 12.439903846153847 0.3446514423076915  14.631410256410257 0  16.923076923076923 0  C 19.21474358974359 0  21.40625 0.3446514423076915  23.497596153846153 1.033954326923078  C 25.588942307692307 1.723257211538461  27.391826923076927 2.6547475961538476  28.90625 3.8284254807692304  C 30.420673076923073 5.002103365384617  31.622596153846153 6.399338942307692  32.512019230769226 8.020132211538462  C 33.40144230769231 9.64092548076923  33.84615384615385 11.339342948717945  33.84615384615385 13.115384615384617  C 33.84615384615385 15.847756410256409  32.8525641025641 18.325520833333332  30.865384615384617 20.548677884615383  L 39.11057692307693 26.938701923076923  Z " fill-rule="nonzero" fill="#000000" stroke="none" transform="matrix(1 0 0 1 181 652 )" />
  </g>
</svg>