<?xml version="1.0" encoding="utf-8"?>
<svg version="1.1" xmlns:xlink="http://www.w3.org/1999/xlink" width="38px" height="30px" xmlns="http://www.w3.org/2000/svg">
  <g transform="matrix(1 0 0 1 -181 -544 )">
    <path d="M 29.61328125 17.128906250000004  C 29.926649305555557 16.881510416666664  30.083333333333332 16.588541666666664  30.083333333333332 16.250000000000004  L 30.083333333333332 13.750000000000002  C 30.083333333333332 13.411458333333332  29.926649305555557 13.118489583333332  29.61328125 12.871093750000002  C 29.29991319444445 12.623697916666668  28.92881944444445 12.499999999999998  28.5 12.499999999999998  L 22.166666666666668 12.499999999999998  L 22.166666666666668 7.5  C 22.166666666666668 7.16145833333333  22.009982638888893 6.86848958333333  21.696614583333332 6.62109375  C 21.38324652777778 6.373697916666666  21.01215277777778 6.250000000000001  20.583333333333332 6.250000000000001  L 17.416666666666664 6.250000000000001  C 16.987847222222225 6.250000000000001  16.616753472222225 6.373697916666666  16.303385416666664 6.62109375  C 15.990017361111112 6.86848958333333  15.833333333333334 7.16145833333333  15.833333333333334 7.5  L 15.833333333333334 12.499999999999998  L 9.5 12.499999999999998  C 9.071180555555555 12.499999999999998  8.700086805555555 12.623697916666668  8.38671875 12.871093750000002  C 8.073350694444445 13.118489583333332  7.916666666666667 13.411458333333332  7.916666666666667 13.750000000000002  L 7.916666666666667 16.250000000000004  C 7.916666666666667 16.588541666666664  8.073350694444445 16.881510416666664  8.38671875 17.128906250000004  C 8.700086805555555 17.376302083333332  9.071180555555555 17.499999999999996  9.5 17.499999999999996  L 15.833333333333334 17.499999999999996  L 15.833333333333334 22.5  C 15.833333333333334 22.838541666666668  15.990017361111112 23.131510416666668  16.303385416666664 23.37890625  C 16.616753472222225 23.626302083333332  16.987847222222225 23.75  17.416666666666664 23.75  L 20.583333333333332 23.75  C 21.01215277777778 23.75  21.38324652777778 23.626302083333332  21.696614583333332 23.37890625  C 22.009982638888893 23.131510416666668  22.166666666666668 22.838541666666668  22.166666666666668 22.5  L 22.166666666666668 17.499999999999996  L 28.5 17.499999999999996  C 28.92881944444445 17.499999999999996  29.29991319444445 17.376302083333332  29.61328125 17.128906250000004  Z M 35.45182291666667 7.470703125  C 37.150607638888886 9.76888020833333  38 12.278645833333329  38 15  C 38 17.721354166666668  37.150607638888886 20.231119791666664  35.45182291666667 22.529296875  C 33.75303819444445 24.827473958333332  31.448133680555557 26.647135416666668  28.537109375 27.98828125  C 25.62608506944445 29.329427083333336  22.44704861111111 30  19 30  C 15.55295138888889 30  12.373914930555555 29.329427083333336  9.462890625 27.98828125  C 6.551866319444445 26.647135416666668  4.246961805555556 24.827473958333332  2.5481770833333335 22.529296875  C 0.8493923611111109 20.231119791666664  0 17.721354166666668  0 15  C 0 12.278645833333329  0.8493923611111109 9.76888020833333  2.5481770833333335 7.470703125  C 4.246961805555556 5.172526041666666  6.551866319444445 3.3528645833333304  9.462890625 2.011718749999999  C 12.373914930555555 0.6705729166666641  15.55295138888889 0  19 0  C 22.44704861111111 0  25.62608506944445 0.6705729166666641  28.537109375 2.011718749999999  C 31.448133680555557 3.3528645833333304  33.75303819444445 5.172526041666666  35.45182291666667 7.470703125  Z " fill-rule="nonzero" fill="#000000" stroke="none" transform="matrix(1 0 0 1 181 544 )" />
  </g>
</svg>